<svg width="263" height="482" viewBox="0 0 263 482" fill="none" xmlns="http://www.w3.org/2000/svg">
<path d="M262.727 433.247C262.733 433.088 262.818 432.955 262.818 432.794V77.4808C262.818 77.3208 262.733 77.1876 262.727 77.0285C262.677 75.8776 262.447 74.7416 262.047 73.6615C261.952 73.4035 261.892 73.1433 261.779 72.8944C261.719 72.7615 261.702 72.6171 261.636 72.4853L243.018 35.249C242.091 33.3928 240.665 31.8316 238.901 30.7405C237.136 29.6494 235.102 29.0715 233.027 29.0717H188.287L202.523 20.8535C203.796 20.1215 204.913 19.1455 205.808 17.9815C206.704 16.8175 207.361 15.4883 207.742 14.0699C208.124 12.6516 208.222 11.172 208.03 9.71583C207.839 8.25964 207.363 6.85546 206.628 5.58364C205.894 4.31182 204.915 3.19735 203.75 2.30399C202.584 1.41064 201.253 0.755958 199.834 0.377408C198.415 -0.00114205 196.936 -0.0961233 195.48 0.0978993C194.024 0.291922 192.621 0.771138 191.35 1.50812L143.603 29.0717H29.7908C27.716 29.0715 25.6822 29.6494 23.9175 30.7405C22.1527 31.8316 20.7269 33.3928 19.7999 35.249L1.18169 72.4853C1.11579 72.6171 1.09929 72.7615 1.03909 72.8944C0.925993 73.1433 0.8664 73.4035 0.7715 73.6615C0.37084 74.7416 0.141406 75.8776 0.0914993 77.0285C0.0846993 77.1876 0 77.3206 0 77.4808V432.794C0 432.954 0.0846993 433.088 0.0914993 433.247C0.141406 434.398 0.37084 435.534 0.7715 436.614C0.8664 436.872 0.925993 437.132 1.03909 437.381C1.09909 437.514 1.11579 437.658 1.18169 437.79L19.7999 475.026C20.7269 476.882 22.1527 478.444 23.9175 479.535C25.6822 480.626 27.716 481.204 29.7908 481.204H233.027C235.102 481.204 237.136 480.626 238.901 479.535C240.665 478.444 242.091 476.882 243.018 475.026L261.636 437.79C261.702 437.658 261.719 437.514 261.779 437.381C261.892 437.132 261.952 436.872 262.047 436.614C262.447 435.534 262.677 434.398 262.727 433.247ZM22.3454 88.6535H240.473V421.622H22.3454V88.6535ZM36.6954 51.4171H226.123L233.573 66.3081H29.2454L36.6954 51.4171ZM226.123 458.858H36.6954L29.2454 443.967H233.573L226.123 458.858Z" fill="#6C63FF"/>
<path d="M202.672 250.804L142.582 216.108V136.044C142.582 133.585 141.77 131.195 140.273 129.244C138.776 127.293 136.677 125.891 134.302 125.254C131.927 124.618 129.408 124.783 127.136 125.724C124.864 126.664 122.966 128.329 121.736 130.458L56.0589 244.213C55.325 245.483 54.8487 246.885 54.6569 248.339C54.4651 249.794 54.5617 251.272 54.9412 252.689C55.3207 254.106 55.9756 255.434 56.8685 256.598C57.7614 257.762 58.8749 258.738 60.1453 259.472L120.236 294.172V374.231C120.236 376.69 121.047 379.081 122.544 381.032C124.041 382.983 126.14 384.386 128.515 385.023C130.891 385.659 133.41 385.494 135.682 384.553C137.954 383.612 139.852 381.947 141.082 379.817L206.759 266.063C207.493 264.793 207.97 263.39 208.161 261.936C208.353 260.481 208.257 259.003 207.877 257.586C207.498 256.169 206.843 254.841 205.95 253.677C205.057 252.513 203.943 251.537 202.672 250.804ZM142.582 332.54V287.722C142.581 285.761 142.064 283.835 141.084 282.137C140.103 280.439 138.693 279.029 136.995 278.049L80.9907 245.713L120.236 177.735V222.558C120.237 224.519 120.753 226.445 121.734 228.143C122.714 229.841 124.124 231.25 125.822 232.231L181.827 264.568L142.582 332.54Z" fill="#6C63FF"/>
</svg>
