<svg width="100" height="101" viewBox="0 0 100 101" fill="none" xmlns="http://www.w3.org/2000/svg">
<path d="M99.9828 89.5679L97.7396 42.3004C97.4191 36.3719 92.452 31.5651 86.5236 31.5651H68.8984V26.598C68.8984 20.6695 64.0915 15.7024 58.0028 15.7024H49.1902V14.741C49.1902 6.56938 42.6209 0 34.4492 0C26.2775 0 19.7081 6.56938 19.7081 14.741V15.7024H10.8956C4.96709 15.7024 0 20.5093 0 26.598V89.7281C0 95.6566 4.80686 100.624 10.8956 100.624H89.7281C92.6123 100.624 95.3361 99.5021 97.2589 97.4191C99.1816 95.1759 100.143 92.452 99.9828 89.5679ZM25.4764 14.9013C25.4764 9.93419 29.4821 6.08869 34.289 6.08869C39.0958 6.08869 43.1016 10.0944 43.1016 14.9013V15.8627H25.4764V14.9013ZM37.3333 42.3004L34.9299 89.5679C34.7696 91.3304 35.2503 93.0929 35.8913 94.6952H10.7353C8.01144 94.6952 5.76824 92.452 5.76824 89.7281V26.598C5.76824 23.8741 8.01144 21.6309 10.7353 21.6309H58.0028C60.7267 21.6309 62.9699 23.8741 62.9699 26.598V31.5651H48.5493C42.7811 31.5651 37.6538 36.3719 37.3333 42.3004ZM92.9327 93.2532C92.1316 94.2145 90.8497 94.6952 89.5679 94.6952H45.505C44.2232 94.6952 43.1016 94.2145 42.1402 93.2532C41.339 92.2918 40.8583 91.1702 40.8583 89.8884L43.2618 42.6209C43.422 39.897 45.8254 37.4935 48.5493 37.4935H86.3633C89.0872 37.4935 91.4907 39.897 91.6509 42.6209L94.0543 89.8884C94.2145 91.1702 93.7339 92.2918 92.9327 93.2532Z" fill="#6C63FF"/>
<path d="M79.3132 47.4275C77.7109 47.4275 76.4291 48.7093 76.4291 50.3116V54.3173C76.4291 59.2844 72.4233 63.1299 67.6165 63.1299C62.6494 63.1299 58.8039 59.1242 58.8039 54.3173V50.3116C58.8039 48.7093 57.5221 47.4275 55.9198 47.4275C54.3175 47.4275 53.0356 48.7093 53.0356 50.3116V54.3173C53.0356 62.489 59.605 69.0584 67.7767 69.0584C75.9484 69.0584 82.5177 62.489 82.5177 54.3173V50.3116C82.3575 48.7093 80.9155 47.4275 79.3132 47.4275Z" fill="#6C63FF"/>
</svg>
